<?xml version="1.0" encoding="utf-8"?>
<!DOCTYPE svg PUBLIC "-//W3C//DTD SVG 1.1//EN" "http://www.w3.org/Graphics/SVG/1.1/DTD/svg11.dtd">
<svg version="1.1" id="Layer_1" xmlns="http://www.w3.org/2000/svg" xmlns:xlink="http://www.w3.org/1999/xlink" x="0px" y="0px"
	 width="24pt" height="24pt" viewBox="220 180 380 270" preserveAspectRatio="none">
<path fill="#B6B6B6" d="M526.052,266.936h-4.433l-114.197-56.612l-114.021,56.612h-4.749c-2.025,0-3.674,1.651-3.674,3.679v12.348
    c0,2.025,1.648,3.676,3.674,3.676h2.426v1.701v10.985c0,1.261,1.023,2.289,2.285,2.289h2.43v74.923h-1.049h-1.104
    c-2.235,0-4.052,1.815-4.052,4.051v9.258c0,2.235,1.817,4.051,4.052,4.051h32.364c0.022,0,0.037-0.002,0.059-0.002l2.151,0.002
    c3.914,0,4.536-1.815,4.536-4.051v-9.258c0-2.235-0.551-4.051-4.536-4.051h-0.184v-74.923h0.705c2.241,0,2.565-1.027,2.565-2.289
    v-12.686h23.14v1.701v10.985c0,1.261,1.027,2.289,2.288,2.289h2.429v74.923h-1.049h-1.102c-2.235,0-4.053,1.815-4.053,4.051v9.258
    c0,2.235,1.818,4.051,4.053,4.051h32.362c0.021,0,0.036-0.002,0.055-0.002l2.155,0.002c3.914,0,4.535-1.815,4.535-4.051v-9.258
    c0-2.235-0.55-4.051-4.535-4.051h-0.184v-74.923h0.707c2.24,0,2.562-1.027,2.562-2.289v-12.686h23.881v1.701v10.985
    c0,1.261,1.022,2.289,2.285,2.289h2.43v74.923h-1.05h-1.104c-2.23,0-4.051,1.815-4.051,4.051v9.258c0,2.235,1.82,4.051,4.051,4.051
    h32.361c0.023,0,0.038-0.002,0.059-0.002l2.156,0.002c3.914,0,4.531-1.815,4.531-4.051v-9.258c0-2.235-0.552-4.051-4.531-4.051
    h-0.189v-74.923h0.709c2.24,0,2.562-1.027,2.562-2.289v-12.686h22.409v1.701v10.985c0,1.261,1.022,2.289,2.284,2.289h0.278h2.152
    v74.923h-1.05h-1.103c-2.233,0-4.051,1.815-4.051,4.051v9.258c0,2.235,1.817,4.051,4.051,4.051H516.1
    c0.021,0,0.035-0.002,0.056-0.002l2.153,0.002c3.914,0,4.535-1.815,4.535-4.051v-9.258c0-2.235-0.551-4.051-4.535-4.051h-0.184
    v-74.923h0.706c2.237,0,2.562-1.027,2.562-2.289v-12.686h4.658c2.025,0,3.674-1.651,3.674-3.676v-12.348
    C529.726,268.587,528.077,266.936,526.052,266.936z"/>
<path fill="#464646" d="M338.439,286.822c0,11.175-3.353,19.498-10.05,24.957c-6.699,5.465-16.307,8.198-28.812,8.198h-14.688
    v47.691H259.67V253.744h39.68c12.017,0,21.536,2.732,28.558,8.195C334.926,267.402,338.439,275.698,338.439,286.822z
    M313.443,290.123c0-5.647-1.532-9.849-4.598-12.6c-3.069-2.751-7.369-4.125-12.904-4.125h-11.052v33.895h11.719
    c5.832,0,10.1-1.533,12.792-4.606C312.095,299.613,313.443,295.427,313.443,290.123z"/>
<path fill="#464646" d="M473.208,367.669h-25.911l-12.355-63.538l-23.18,54.638h-11.679l-21.064-52.429l-12.554,61.329H342
    l25.292-113.925h9.866l30.261,67.273l30.039-67.273h10.459L473.208,367.669z"/>
<path fill="#464646" d="M556.801,279.702c-2.158-1.394-4.414-3.004-7.155-4.264c-2.736-1.261-6.769-1.891-12.105-1.891
    c-8.492,0-15.751,3.312-21.771,9.938c-6.027,6.626-9.037,15.5-9.037,26.627c0,11.47,2.394,20.607,7.186,27.406
    c4.786,6.797,12.271,10.2,22.444,10.2c4.348,0,9.271-0.619,14.781-1.855c5.501-1.234,10.179-2.846,14.036-4.824v20.844
    c-3.759,2.326-8.568,4.131-14.428,5.414c-5.859,1.288-11.14,1.929-15.836,1.929c-17.653,0-31.2-5.167-40.645-15.501
    c-9.448-10.334-14.163-24.55-14.163-42.646c0-16.023,4.917-29.731,14.757-41.129c9.835-11.397,23.636-17.096,41.389-17.096
    c4.791,0,10.108,0.656,15.944,1.966c5.831,1.309,10.834,3.349,14.983,6.118l-5.714,22.648
    C561.468,283.585,558.84,281.023,556.801,279.702z"/>
</svg>

