<?xml version="1.0" encoding="utf-8"?>
<!DOCTYPE svg PUBLIC "-//W3C//DTD SVG 1.1//EN" "http://www.w3.org/Graphics/SVG/1.1/DTD/svg11.dtd">
<svg version="1.1" 
xmlns="http://www.w3.org/2000/svg" 
xmlns:xlink="http://www.w3.org/1999/xlink" x="0px" y="0px"
width="24pt" height="24pt" viewBox="0 0 263.89 203.19">
  <g>
      <path d="M47.92,192V115.84H75.86a53.44,53.44,0,0,1,11.7,1.22,26.36,26.36,0,0,1,9.5,4.06,19.89,19.89,0,0,1,6.4,7.56,25.8,25.8,0,0,1,2.35,11.59,25.78,25.78,0,0,1-2.42,11.54,22.32,22.32,0,0,1-6.53,8,27.92,27.92,0,0,1-9.52,4.63A42.92,42.92,0,0,1,75.79,166H65.09v26H47.92Zm17.17-39.47h9.58q14,0,14-12.12,0-6.09-3.54-8.59t-10.44-2.5H65.09v23.21Z" transform="translate(-19.55 -18.81)"/>
      <path d="M115.3,192V115.84h19.62l12.7,34.22,4.56,13.29h0.46l4.56-13.29,12.36-34.22h19.27V192H171.65V164.09q0-2.79.24-6.19t0.64-6.84q0.4-3.45.76-6.79t0.73-6.13h-0.49l-6.37,17.62-11.7,29.54h-6.89l-11.77-29.54-6.09-17.62h-0.56q0.37,2.79.78,6.13t0.72,6.79q0.31,3.45.56,6.82t0.25,6.22V192H115.3Z" transform="translate(-19.55 -18.81)"/>
      <path d="M199.82,154.42a45.62,45.62,0,0,1,2.94-16.89,38.23,38.23,0,0,1,7.9-12.58,33.23,33.23,0,0,1,11.55-7.85,36.63,36.63,0,0,1,13.94-2.68,27.62,27.62,0,0,1,12.92,3,36.88,36.88,0,0,1,9.61,7l-9.41,10.68a27,27,0,0,0-5.9-4.22,15.1,15.1,0,0,0-7-1.54A16.37,16.37,0,0,0,229,131a18.24,18.24,0,0,0-6,4.84,23.43,23.43,0,0,0-4,7.69,33,33,0,0,0-1.48,10.25q0,11.79,5,18.26a16.18,16.18,0,0,0,13.43,6.47,17.28,17.28,0,0,0,8.18-1.85,23.49,23.49,0,0,0,6.3-4.87l9.47,10.37A31.93,31.93,0,0,1,249,190.58a31.31,31.31,0,0,1-13.26,2.82,38.4,38.4,0,0,1-13.89-2.51,32.26,32.26,0,0,1-11.43-7.44,35,35,0,0,1-7.73-12.2A46.31,46.31,0,0,1,199.82,154.42Z" transform="translate(-19.55 -18.81)"/>
    <polygon points="0 55.59 263.89 55.59 135.91 0 0 55.59"/>
    <rect y="63.97" width="263.89" height="11.9"/>
    <rect y="191.29" width="263.89" height="11.9"/>
  </g>
</svg>

